<svg xmlns="http://www.w3.org/2000/svg" width="18px" height="18px">
	<path d="M15.5,11.5c-0.4,0-0.8-0.2-1.1-0.5c0,0-0.2-0.5-1-0.5c-0.2,0-0.3,0-0.5,0.1V15c0,0.6-0.4,1-1,1H9.6
		c-0.1,0-0.3-0.1-0.3-0.6c0-0.4,0.4-0.7,0.4-0.7l0,0c0.4-0.2,0.6-0.6,0.6-1.1c0-0.8-0.7-1.5-1.8-1.5s-1.8,0.7-1.8,1.5
		c0,0.5,0.2,0.8,0.6,1.1l0,0c0,0,0.4,0.3,0.4,0.7c0,0.5-0.2,0.6-0.3,0.6H3c-0.6,0-1-0.4-1-1v-3.9c0,0,0.1-0.4,0.7-0.4
		c0.3,0,0.5,0.1,0.6,0.2c0.2,0.5,0.7,0.8,1.1,0.8c0.7,0,1.3-0.7,1.3-1.7S5.2,8.2,4.5,8.2C4,8.2,3.6,8.5,3.4,9C3.2,9.1,3,9.2,2.7,9.2
		C2.1,9.2,2,8.8,2,8.8V6c0-0.6,0.4-1,1-1h3c0,0,0.5-0.1,0.5-0.7C6.5,3.9,6,3.6,6,3.6l0,0C5.7,3.3,5.5,2.9,5.5,2.5
		c0-0.8,0.6-1.5,2-1.5s2,0.7,2,1.5c0,0.4-0.2,0.8-0.5,1.1l0,0c0,0-0.5,0.4-0.5,0.7C8.5,4.9,9,5,9,5h3c0.6,0,1,0.4,1,1v2.4
		c0.1,0,0.3,0.1,0.5,0.1c0.7,0,1-0.5,1-0.5v0c0.3-0.3,0.7-0.5,1.1-0.5c0.8,0,1.5,0.6,1.5,2S16.3,11.5,15.5,11.5z"/>
</svg>