<svg xmlns="http://www.w3.org/2000/svg" width="18px" height="18px">
	<path d="M9.2,7.9C9.2,5.3,8,4,5.5,4C4.2,4,3,4.3,2,5v1.7c1-0.9,2.1-1.3,3.4-1.3c1.4,0,2.1,0.9,2.1,2.7L4.4,8.5C2.1,8.8,1,10,1,12
		c0,0.9,0.3,1.7,0.9,2.2C2.5,14.7,3.3,15,4.3,15c2.3,0,2.9-1.2,3.3-1.7c0.4-0.4,0.7-1.5,0.7-1.5L9.2,7.9z M7.5,10.5
		c0,0.9-0.3,1.6-0.8,2.2c-0.5,0.6-1.2,0.9-2,0.9c-0.6,0-1.1-0.2-1.4-0.5c-0.4-0.3-0.5-0.7-0.5-1.3c0-0.7,0.2-1.2,0.6-1.5
		c0.4-0.3,1-0.5,1.7-0.6l2.5-0.3V10.5z"/>
	<path d="M17,9c0-1.6-0.4-2.8-1.1-3.7C15.1,4.4,14.1,4,12.7,4s-2.5,0.5-3.4,1.5C8.4,6.6,8,7.9,8,9.5c0,1.7,0.4,3.1,1.3,4
		s2,1.4,3.5,1.4c1.5,0,2.7-0.3,3.6-1v-1.6c-1,0.8-2.1,1.2-3.2,1.2c-1,0-1.9-0.3-2.5-1C10,12,9.7,11.1,9.7,9.9H17V9z M9.7,8.5
		c0.1-0.9,0.5-1.7,1-2.2s1.2-0.9,2-0.9c0.8,0,1.4,0.3,1.9,0.8c0.5,0.5,0.7,1.3,0.7,2.3H9.7z"/>
</svg>