<svg xmlns="http://www.w3.org/2000/svg" width="18px" height="18px">
	<path d="M9,17c-4.4,0-8-3.6-8-8c0-4.4,3.6-8,8-8c4.4,0,8,3.6,8,8C17,13.4,13.4,17,9,17z M2.1,8.2
		C2,8.5,2,8.7,2,9c0,1,0.2,2,0.6,2.9c0-0.3,0.2-0.7,0.4-0.8c0.5-0.3,1.4-0.7,1.4-0.7L2.1,8.2z M6.8,2.4c0,0.4,0,1,0.5,1.1
		c0.4,0.1,1.1-1.1,1.7-1c1.7,0.2,0.9,2.7,0.6,2.7c-0.4,0.1-0.9-0.1-1.2,0C8.1,5.3,8.1,5.9,7.8,5.9s-1,0.2-1.3,1.4
		C6.4,8,6.9,9.1,6.9,9.2c0,0.1-0.8-0.1-1.1-0.9C5.4,7.3,4.5,7.5,4.3,7.9C3.9,8.5,4.8,9.3,5.2,9.7c0.4,0.4,0.9,1.2,2.3,1.1
		c1.3-0.1,2.2-0.2,2.2,1.2c0.1,1.2-0.6,1.7-0.9,2.4c-0.2,0.4-0.4,1.1-0.5,1.5C8.6,16,8.8,16,9,16c2.4,0,4.5-1.2,5.7-3
		c-0.2-0.3-0.5-0.8-0.7-1.1c-0.3-0.5-0.1-0.9-0.4-1.2c-0.3-0.3-2.5-0.4-2.6-1.8c-0.2-1.9,2.8-3.1,2.8-3.4c0.1-0.3-1.3-0.1-1.6-0.7
		c-0.2-0.4,0.5-1.1,0.9-1.5C12,2.5,10.5,2,9,2C8.2,2,7.5,2.2,6.8,2.4z"/>
</svg>