<svg xmlns="http://www.w3.org/2000/svg" width="16px" height="16px">
	<path d="M3.7,3.9c0.2-0.6,0.5-1.1,0.9-1.5s0.8-0.8,1.4-1C6.6,1.1,7.2,1,7.9,1c0.9,0,1.7,0.1,2.3,0.4c0.6,0.3,1.1,0.6,1.4,1
		c0.4,0.4,0.6,0.8,0.8,1.2c0.2,0.4,0.2,0.8,0.2,1.2c0,0.6,0,1-0.2,1.4c-0.2,0.4-0.4,0.8-0.6,1c-0.2,0.3-0.4,0.5-0.7,0.7
		c-0.3,0.2-0.6,0.4-0.8,0.6C10.1,8.7,9.8,9,9.6,9.2c-0.2,0.3-0.3,0.6-0.4,1V11H6.6v-0.9c0-0.6,0.1-1,0.3-1.4c0.2-0.4,0.4-0.7,0.6-1
		C7.8,7.4,8,7.2,8.3,7C8.6,6.8,8.8,6.6,9,6.4C9.2,6.2,9.4,6,9.6,5.7c0.1-0.2,0.2-0.5,0.2-0.9c0-0.6-0.1-0.8-0.4-1.1
		C9,3.5,8.6,3.3,8.1,3.3c-0.4,0-0.7,0.1-0.9,0.2C6.9,3.7,6.7,3.9,6.5,4.1C6.4,4.3,6.3,4.6,6.2,4.9C6.1,5.2,6,5.6,6,6H3.3
		C3.3,5.3,3.5,4.5,3.7,3.9"/>
	<path d="M9.4,13.5c0,0.9-0.7,1.5-1.5,1.5c-0.8,0-1.5-0.7-1.5-1.5c0-0.8,0.7-1.5,1.5-1.5C8.8,11.9,9.4,12.6,9.4,13.5"/>
</svg>