<svg xmlns="http://www.w3.org/2000/svg" width="18px" height="18px">
	<path d="M9,16c-3.9,0-7-3.1-7-7s3.1-7,7-7c3.9,0,7,3.1,7,7S12.9,16,9,16z M9,4C6.2,4,4,6.2,4,9
		c0,2.8,2.2,5,5,5s5-2.2,5-5C14,6.2,11.8,4,9,4z"/>
	<path d="M8,5.5h1V9H8V5.5z"/>
	<path d="M10.9,10.6l-0.7,0.7l-2-2l0.7-0.7L10.9,10.6z"/>
	<path d="M8.5,8.5C8.8,8.5,9,8.7,9,9S8.8,9.5,8.5,9.5C8.2,9.5,8,9.3,8,9S8.2,8.5,8.5,8.5z"/>
	<path d="M8.5,5C8.8,5,9,5.2,9,5.5S8.8,6,8.5,6C8.2,6,8,5.8,8,5.5S8.2,5,8.5,5z"/>
	<path d="M10.5,10.5c0.3,0,0.5,0.2,0.5,0.5s-0.2,0.5-0.5,0.5c-0.3,0-0.5-0.2-0.5-0.5S10.2,10.5,10.5,10.5z"/>
</svg>