<svg xmlns="http://www.w3.org/2000/svg" width="64px" height="64px">
	<path d="M62.4,45.5l-7.5,9.4l-0.1-0.1C54,55.5,53,56,51.8,56c-2.4,0-4.4-2-4.4-4.5c0-1.4,0.6-2.6,1.6-3.5l0,0
		l4.6-6L47,35v17H25l22-29l15.5,15v0.1c0.9,0.9,1.5,2.2,1.5,3.7C64,43.2,63.4,44.6,62.4,45.5z M22.6,5L22,2h20l-0.6,3H22.6z M23,12V8
		h18v4c0,5-4,9-9,9S23,17,23,12z M17,52V35l-6.6,7l4.6,6l0,0c1,0.8,1.6,2.1,1.6,3.5c0,2.5-2,4.5-4.4,4.5c-1.2,0-2.2-0.5-3-1.2
		l-0.1,0.1l-7.5-9.4c-1-1-1.6-2.3-1.6-3.8c0-1.4,0.6-2.7,1.5-3.7V38L17,23h22L17,52z M47,64H18v-6h29V64z"/>
</svg>