<svg xmlns="http://www.w3.org/2000/svg" width="18px" height="18px">
	<path d="M16.6,8.3c-0.2,0.9-0.2,1.9-0.6,2.8c-0.7,1.5-2.1,2.7-2.8,2.8c-0.8,0.2-1.9,0.2-2.5,0
		c-0.6-0.3-0.7-1.3-1.8-1.4c0,0,0,0,0,0c0,0,0,0,0,0c-1,0.1-1.1,1.1-1.7,1.4c-0.6,0.3-1.7,0.2-2.5,0c-0.7-0.1-2-1.3-2.7-2.8
		c-0.4-0.9-0.4-1.9-0.6-2.8C1.1,7,1,5.3,1,5.3s1.3,0.7,2,0.7c0.9,0,2-1.1,3.2-1.1c2,0.1,1.8,1.8,2.7,1.9c0.1,0-0.1,0,0,0
		C9.9,6.8,9.7,5.1,11.7,5C12.9,4.9,14,6.1,15,6.1c0.7,0,2-0.7,2-0.7S16.9,7,16.6,8.3z M5.6,8.1c-2.3,0-2.9,0.8-2.9,0.8s1,1.2,2.6,1.2
		c1.1,0,2.3,0.1,2.3,0.1S6.9,8.2,5.6,8.1z M12.3,8.2c-1.3,0-2,2.1-2,2.1s1.1-0.1,2.2-0.1C14,10.1,15,9,15,9S14.4,8.2,12.3,8.2z"/>
</svg>