<svg xmlns="http://www.w3.org/2000/svg" width="18px" height="18px">
	<path d="M11.8,11.8c-2.9,0-5.3-2.4-5.3-5.4c0-3,2.4-5.4,5.3-5.4S17,3.4,17,6.4C17,9.4,14.6,11.8,11.8,11.8z
		 M11.8,2.5C9.7,2.5,8,4.3,8,6.4c0,2.1,1.7,3.9,3.8,3.9s3.8-1.7,3.8-3.9C15.5,4.3,13.8,2.5,11.8,2.5z"/>
	<path d="M3.1,14.3h0.4c0.6,0,1.1,0.5,1.1,1.2v0.4c0,0.6-0.5,1.2-1.1,1.2H3.1C2.5,17,2,16.5,2,15.8v-0.4
		C2,14.8,2.5,14.3,3.1,14.3z"/>
	<path d="M6.9,10.4h0.4c0.6,0,1.1,0.5,1.1,1.2v0.4c0,0.6-0.5,1.2-1.1,1.2H6.9c-0.6,0-1.1-0.5-1.1-1.2v-0.4
		C5.8,10.9,6.3,10.4,6.9,10.4z"/>
	<path d="M2.3,14.6l3.8-3.9l2,2l-3.8,3.9L2.3,14.6z"/>
	<path d="M6.9,10.4L8,9.2l1.5,1.6l-1.1,1.2L6.9,10.4z"/>
</svg>