<svg xmlns="http://www.w3.org/2000/svg" width="18px" height="18px">
	<path d="M16.6,10.8l-1.3-0.5c0.1-0.4,0.1-0.8,0.1-1.2c0-0.4-0.1-0.8-0.1-1.2l1.3-0.5c0.3-0.1,0.5-0.5,0.3-0.8
		l-0.5-1.2c-0.1-0.3-0.5-0.5-0.8-0.3l-1.3,0.5c-0.5-0.7-1-1.3-1.7-1.7l0.5-1.3c0.1-0.3,0-0.7-0.3-0.8L11.6,1c-0.3-0.1-0.7,0-0.8,0.3
		l-0.5,1.3C9.8,2.6,9.4,2.6,9,2.6c-0.4,0-0.8,0.1-1.2,0.1L7.2,1.4C7.1,1.1,6.7,0.9,6.4,1L5.2,1.5C4.9,1.7,4.7,2.1,4.9,2.4l0.5,1.3
		c-0.7,0.5-1.3,1-1.7,1.7L2.4,4.9c-0.3-0.1-0.7,0-0.8,0.3L1,6.4c-0.1,0.3,0,0.7,0.3,0.8l1.3,0.5C2.6,8.2,2.6,8.6,2.6,9
		c0,0.4,0.1,0.8,0.1,1.2l-1.3,0.5c-0.3,0.1-0.5,0.5-0.3,0.8l0.5,1.2c0.1,0.3,0.5,0.5,0.8,0.3l1.3-0.5c0.5,0.7,1,1.3,1.7,1.7
		l-0.5,1.3c-0.1,0.3,0,0.7,0.3,0.8L6.4,17c0.3,0.1,0.7,0,0.8-0.3l0.5-1.3c0.4,0.1,0.8,0.1,1.2,0.1c0.4,0,0.8-0.1,1.2-0.1l0.5,1.3
		c0.1,0.3,0.5,0.5,0.8,0.3l1.2-0.5c0.3-0.1,0.5-0.5,0.3-0.8l-0.5-1.3c0.7-0.5,1.3-1,1.7-1.7l1.3,0.5c0.3,0.1,0.7,0,0.8-0.3l0.5-1.2
		C17.1,11.3,16.9,10.9,16.6,10.8z M9,13c-2.2,0-4-1.8-4-4c0-2.2,1.8-4,4-4c2.2,0,4,1.8,4,4C13,11.2,11.2,13,9,13z"/>
</svg>